# xmcd
# 
# Track frame offsets:
#     182
#     18167
#     31920
#     46212
#     58290
#     71805
#     88260
#     105692
#     121780
#     139225
#     155535
# 
# Disc length: 2347
# 
# Revision: 14
# Processed by: cddbd v1.5.2PL0 Copyright (c) Steve Scherf et al.
# Submitted via: fre:ac v1.0.17
# 
DISCID=9509290b
DTITLE=Luis Miguel - Segundo Romance
DYEAR=1994
DGENRE=Baladas
TTITLE0=El Día Que Me Quieras
TTITLE1=Sin Ti
TTITLE2=Somos Novios
TTITLE3=La Media Vuelta
TTITLE4=Solamente Una Vez
TTITLE5=Todo y Nada
TTITLE6=Historia De Un Amor
TTITLE7=Como Yo Te Amé
TTITLE8=Nosotros
TTITLE9=Yo Sé Que Volverás
TTITLE10=Delirio
EXTD=@RetroMBJ - Melvin Brian
EXTT0=
EXTT1=
EXTT2=
EXTT3=
EXTT4=
EXTT5=
EXTT6=
EXTT7=
EXTT8=
EXTT9=
EXTT10=
PLAYORDER=
